<svg width="16" height="20" viewBox="0 0 16 20" fill="none" xmlns="http://www.w3.org/2000/svg">
<path d="M8 0C5.2473 0 3 2.2473 3 5V8C1.15438 8 0 9.52123 0 10.832V17.166C0 18.7184 1.28161 20 2.83398 20H13.166C14.7184 20 16 18.7184 16 17.166V10.832C16 8.94871 14.4786 8 13 8V5C13 2.2473 10.7527 0 8 0ZM8 2C9.6793 2 11 3.3207 11 5V8H5V5C5 3.3207 6.3207 2 8 2ZM2.83398 10H13.166C13.645 10 14 10.3531 14 10.832V17.166C14 17.645 13.645 18 13.166 18H2.83398C2.35502 18 2 17.645 2 17.166V10.832C2 10.3531 2.35502 10 2.83398 10Z" fill="black"/>
</svg>
